<svg width="25" height="16" viewBox="0 0 25 16" fill="none" xmlns="http://www.w3.org/2000/svg">
<path d="M4.16663 5.08976C4.16663 4.62127 4.633 4.24147 5.20829 4.24147H9.37496C9.95025 4.24147 10.4166 4.62127 10.4166 5.08976C10.4166 5.55826 9.95025 5.93806 9.37496 5.93806H5.20829C4.633 5.93806 4.16663 5.55826 4.16663 5.08976Z" fill="white"/>
<path fill-rule="evenodd" clip-rule="evenodd" d="M4.16667 0C1.86548 0 0 1.51917 0 3.39317V11.8761C0 13.7501 1.86548 15.2693 4.16667 15.2693H20.8333C23.1345 15.2693 25 13.7501 25 11.8761V3.39317C25 1.51917 23.1345 0 20.8333 0H4.16667ZM20.8333 1.69659H4.16667C3.01607 1.69659 2.08333 2.45617 2.08333 3.39317V9.33123H22.9167V3.39317C22.9167 2.45617 21.984 1.69659 20.8333 1.69659ZM22.9167 11.0278H2.08333V11.8761C2.08333 12.8131 3.01607 13.5727 4.16667 13.5727H20.8333C21.984 13.5727 22.9167 12.8131 22.9167 11.8761V11.0278Z" fill="white"/>
</svg>
