<svg width="22" height="19" viewBox="0 0 22 19" fill="none" xmlns="http://www.w3.org/2000/svg">
<path d="M0 1.35714C0 0.60762 0.593116 0 1.32475 0H19.8712C20.6029 0 21.196 0.60762 21.196 1.35714C21.196 2.10667 20.6029 2.71429 19.8712 2.71429H1.32475C0.593116 2.71429 0 2.10667 0 1.35714Z" fill="white"/>
<path d="M0 17.6429C0 16.8933 0.593116 16.2857 1.32475 16.2857H19.8712C20.6029 16.2857 21.196 16.8933 21.196 17.6429C21.196 18.3924 20.6029 19 19.8712 19H1.32475C0.593116 19 0 18.3924 0 17.6429Z" fill="white"/>
<path d="M1.32475 8.14286C0.593116 8.14286 0 8.75045 0 9.5C0 10.2496 0.593116 10.8571 1.32475 10.8571H11.9227C12.6544 10.8571 13.2475 10.2496 13.2475 9.5C13.2475 8.75045 12.6544 8.14286 11.9227 8.14286H1.32475Z" fill="white"/>
</svg>
