<svg width="19" height="19" viewBox="0 0 19 19" fill="none" xmlns="http://www.w3.org/2000/svg">
<path d="M5.27778 6.11986C4.69482 6.11986 4.22223 6.57651 4.22223 7.13983C4.22223 7.70317 4.69482 8.15981 5.27778 8.15981H13.7222C14.3052 8.15981 14.7778 7.70317 14.7778 7.13983C14.7778 6.57651 14.3052 6.11986 13.7222 6.11986H5.27778Z" fill="white"/>
<path fill-rule="evenodd" clip-rule="evenodd" d="M3.16667 0C1.41777 0 0 1.36998 0 3.05993V15.2996C0 16.9896 1.41777 18.3596 3.16667 18.3596H15.8333C17.5823 18.3596 19 16.9896 19 15.2996V3.05993C19 1.36998 17.5823 0 15.8333 0H3.16667ZM2.11111 15.2996V4.0799H16.8889V15.2996C16.8889 15.863 16.4163 16.3196 15.8333 16.3196H3.16667C2.5837 16.3196 2.11111 15.863 2.11111 15.2996Z" fill="white"/>
</svg>
