<svg width="21" height="21" viewBox="0 0 21 21" fill="none" xmlns="http://www.w3.org/2000/svg">
<path fill-rule="evenodd" clip-rule="evenodd" d="M14.3182 7.63636C14.3182 9.74504 12.6087 11.4545 10.5 11.4545C8.39128 11.4545 6.68182 9.74504 6.68182 7.63636C6.68182 5.52763 8.39128 3.81818 10.5 3.81818C12.6087 3.81818 14.3182 5.52763 14.3182 7.63636ZM12.4091 7.63636C12.4091 8.69075 11.5544 9.54545 10.5 9.54545C9.44561 9.54545 8.59091 8.69075 8.59091 7.63636C8.59091 6.582 9.44561 5.72727 10.5 5.72727C11.5544 5.72727 12.4091 6.582 12.4091 7.63636Z" fill="white"/>
<path fill-rule="evenodd" clip-rule="evenodd" d="M10.5 0C4.70101 0 0 4.70101 0 10.5C0 16.299 4.70101 21 10.5 21C16.299 21 21 16.299 21 10.5C21 4.70101 16.299 0 10.5 0ZM1.90909 10.5C1.90909 12.4952 2.58925 14.3315 3.73034 15.7898C5.30007 13.7349 7.77598 12.4091 10.5616 12.4091C13.3109 12.4091 15.7588 13.7007 17.3312 15.7102C18.4351 14.265 19.0909 12.4591 19.0909 10.5C19.0909 5.75537 15.2447 1.90909 10.5 1.90909C5.75537 1.90909 1.90909 5.75537 1.90909 10.5ZM10.5 19.0909C8.44751 19.0909 6.56312 18.3711 5.0855 17.1702C6.29381 15.4457 8.29601 14.3182 10.5616 14.3182C12.7989 14.3182 14.7795 15.4179 15.9923 17.1063C14.5033 18.3455 12.5886 19.0909 10.5 19.0909Z" fill="white"/>
</svg>
